<svg xmlns="http://www.w3.org/2000/svg" viewBox="0 0 32 32" width="32px" height="32px">
    <path d="M 16 3 C 8.8321388 3 3 8.832144 3 16 C 3 23.167856 8.8321388 29 16 29 C 23.167861 29 29 23.167856 29 16 C 29 8.832144 23.167861 3 16 3 z M 16 5 C 22.086982 5 27 9.9130223 27 16 C 27 22.086978 22.086982 27 16 27 C 9.9130183 27 5 22.086978 5 16 C 5 9.9130223 9.9130183 5 16 5 z M 16 9 A 1 1 0 0 0 16 11 A 1 1 0 0 0 16 9 z M 15.984375 12.986328 A 1.0001 1.0001 0 0 0 15 14 L 15 22 A 1.0001 1.0001 0 1 0 17 22 L 17 14 A 1.0001 1.0001 0 0 0 15.984375 12.986328 z" fill="currentColor"/>
</svg>