<svg xmlns="http://www.w3.org/2000/svg" viewBox="0 0 32 32" width="32px" height="32px">
    <path d="M 16 3 C 8.8321388 3 3 8.832144 3 16 C 3 23.167856 8.8321388 29 16 29 C 23.167861 29 29 23.167856 29 16 C 29 8.832144 23.167861 3 16 3 z M 16 5 C 18.68633 5 21.055251 6.0716685 22.962891 7.6640625 L 7.6640625 22.962891 C 6.0716701 21.055249 5 18.686328 5 16 C 5 9.9130223 9.9130183 5 16 5 z M 24.369141 9.0878906 C 25.938247 10.988852 27 13.335577 27 16 C 27 22.086978 22.086982 27 16 27 C 13.335576 27 10.988851 25.938249 9.0878906 24.369141 L 24.369141 9.0878906 z"  fill="currentColor"/>
</svg>